<svg xmlns="http://www.w3.org/2000/svg" xmlns:xlink="http://www.w3.org/1999/xlink" width="375" viewBox="0 0 375 375" height="375" version="1.0"><defs><g id="f"><path d="M 2.140625 -19.40625 C 2.140625 -19.570312 2.191406 -19.710938 2.296875 -19.828125 C 2.398438 -19.941406 2.546875 -20 2.734375 -20 L 6.71875 -20 C 6.851562 -20 6.992188 -19.941406 7.140625 -19.828125 C 7.296875 -19.722656 7.375 -19.582031 7.375 -19.40625 L 7.375 -12.0625 C 8.34375 -13.320312 9.296875 -14.5625 10.234375 -15.78125 C 11.179688 -17 12.144531 -18.238281 13.125 -19.5 C 13.21875 -19.65625 13.34375 -19.78125 13.5 -19.875 C 13.65625 -19.96875 13.8125 -20.015625 13.96875 -20.015625 L 19.078125 -20.015625 C 19.296875 -20.015625 19.40625 -19.945312 19.40625 -19.8125 C 19.40625 -19.71875 19.359375 -19.609375 19.265625 -19.484375 L 12.921875 -11.125 L 19.9375 -0.5625 C 20.03125 -0.414062 20.078125 -0.296875 20.078125 -0.203125 C 20.078125 -0.0664062 19.976562 0 19.78125 0 L 14.6875 0 C 14.539062 0 14.390625 -0.0390625 14.234375 -0.125 C 14.085938 -0.21875 13.96875 -0.34375 13.875 -0.5 C 13.394531 -1.144531 12.957031 -1.765625 12.5625 -2.359375 C 12.175781 -2.953125 11.796875 -3.539062 11.421875 -4.125 C 11.054688 -4.71875 10.6875 -5.3125 10.3125 -5.90625 C 9.9375 -6.507812 9.523438 -7.144531 9.078125 -7.8125 L 7.375 -5.84375 L 7.375 -0.59375 C 7.375 -0.195312 7.15625 0 6.71875 0 L 2.75 0 C 2.34375 0 2.140625 -0.195312 2.140625 -0.59375 Z M 2.140625 -19.40625"/></g><g id="g"><path d="M 9.515625 -12.625 L 12.765625 -19.578125 C 12.816406 -19.691406 12.859375 -19.769531 12.890625 -19.8125 C 12.929688 -19.863281 12.96875 -19.898438 13 -19.921875 C 13.039062 -19.941406 13.082031 -19.953125 13.125 -19.953125 C 13.164062 -19.960938 13.210938 -19.976562 13.265625 -20 L 18.453125 -20 C 18.515625 -20 18.566406 -19.976562 18.609375 -19.9375 C 18.648438 -19.894531 18.671875 -19.847656 18.671875 -19.796875 C 18.671875 -19.703125 18.609375 -19.59375 18.484375 -19.46875 L 12.09375 -8.15625 L 12.09375 -0.640625 C 12.09375 -0.210938 11.882812 0 11.46875 0 L 7.4375 0 C 7.257812 0 7.117188 -0.0546875 7.015625 -0.171875 C 6.921875 -0.285156 6.875 -0.441406 6.875 -0.640625 L 6.875 -8.1875 L 0.5 -19.46875 C 0.382812 -19.582031 0.328125 -19.691406 0.328125 -19.796875 C 0.328125 -19.847656 0.34375 -19.894531 0.375 -19.9375 C 0.414062 -19.976562 0.46875 -20 0.53125 -20 L 5.703125 -20 C 5.773438 -19.976562 5.828125 -19.960938 5.859375 -19.953125 C 5.890625 -19.953125 5.921875 -19.941406 5.953125 -19.921875 C 5.992188 -19.898438 6.03125 -19.863281 6.0625 -19.8125 C 6.101562 -19.769531 6.15625 -19.691406 6.21875 -19.578125 Z M 9.515625 -12.625"/></g><g id="h"><path d="M 17.421875 -18.546875 C 17.578125 -18.453125 17.691406 -18.332031 17.765625 -18.1875 C 17.835938 -18.050781 17.820312 -17.882812 17.71875 -17.6875 L 15.453125 -14.453125 C 15.347656 -14.296875 15.238281 -14.207031 15.125 -14.1875 C 15.019531 -14.164062 14.882812 -14.203125 14.71875 -14.296875 C 14.28125 -14.628906 13.796875 -14.882812 13.265625 -15.0625 C 12.734375 -15.25 12.171875 -15.34375 11.578125 -15.34375 C 10.847656 -15.34375 10.171875 -15.203125 9.546875 -14.921875 C 8.929688 -14.640625 8.394531 -14.253906 7.9375 -13.765625 C 7.488281 -13.285156 7.140625 -12.722656 6.890625 -12.078125 C 6.640625 -11.429688 6.515625 -10.738281 6.515625 -10 C 6.515625 -9.269531 6.640625 -8.582031 6.890625 -7.9375 C 7.140625 -7.300781 7.488281 -6.738281 7.9375 -6.25 C 8.394531 -5.769531 8.929688 -5.390625 9.546875 -5.109375 C 10.171875 -4.835938 10.847656 -4.703125 11.578125 -4.703125 C 12.171875 -4.703125 12.738281 -4.789062 13.28125 -4.96875 C 13.820312 -5.15625 14.3125 -5.414062 14.75 -5.75 C 14.90625 -5.851562 15.035156 -5.894531 15.140625 -5.875 C 15.253906 -5.851562 15.363281 -5.769531 15.46875 -5.625 L 17.78125 -2.3125 C 17.875 -2.113281 17.882812 -1.945312 17.8125 -1.8125 C 17.75 -1.675781 17.640625 -1.566406 17.484375 -1.484375 C 16.640625 -0.921875 15.726562 -0.484375 14.75 -0.171875 C 13.78125 0.140625 12.753906 0.296875 11.671875 0.296875 C 10.722656 0.296875 9.8125 0.175781 8.9375 -0.0625 C 8.0625 -0.3125 7.238281 -0.660156 6.46875 -1.109375 C 5.707031 -1.554688 5.015625 -2.09375 4.390625 -2.71875 C 3.773438 -3.34375 3.238281 -4.03125 2.78125 -4.78125 C 2.332031 -5.539062 1.988281 -6.359375 1.75 -7.234375 C 1.507812 -8.109375 1.390625 -9.023438 1.390625 -9.984375 C 1.390625 -10.929688 1.507812 -11.84375 1.75 -12.71875 C 1.988281 -13.59375 2.332031 -14.414062 2.78125 -15.1875 C 3.238281 -15.957031 3.773438 -16.65625 4.390625 -17.28125 C 5.015625 -17.90625 5.707031 -18.441406 6.46875 -18.890625 C 7.238281 -19.335938 8.0625 -19.679688 8.9375 -19.921875 C 9.8125 -20.171875 10.722656 -20.296875 11.671875 -20.296875 C 12.753906 -20.296875 13.769531 -20.144531 14.71875 -19.84375 C 15.675781 -19.539062 16.578125 -19.109375 17.421875 -18.546875 Z M 17.421875 -18.546875"/></g><g id="i"><path d="M 2.15625 -19.375 C 2.15625 -19.570312 2.207031 -19.722656 2.3125 -19.828125 C 2.414062 -19.941406 2.5625 -20 2.75 -20 L 11.6875 -20 C 12.476562 -20 13.222656 -19.847656 13.921875 -19.546875 C 14.628906 -19.242188 15.242188 -18.828125 15.765625 -18.296875 C 16.285156 -17.773438 16.695312 -17.160156 17 -16.453125 C 17.3125 -15.753906 17.46875 -15.003906 17.46875 -14.203125 C 17.46875 -13.523438 17.359375 -12.894531 17.140625 -12.3125 C 16.929688 -11.738281 16.632812 -11.222656 16.25 -10.765625 C 16.894531 -10.171875 17.40625 -9.460938 17.78125 -8.640625 C 18.164062 -7.828125 18.359375 -6.960938 18.359375 -6.046875 C 18.359375 -5.234375 18.203125 -4.457031 17.890625 -3.71875 C 17.578125 -2.988281 17.148438 -2.347656 16.609375 -1.796875 C 16.078125 -1.242188 15.453125 -0.804688 14.734375 -0.484375 C 14.023438 -0.160156 13.273438 0 12.484375 0 L 2.75 0 C 2.570312 0 2.425781 -0.046875 2.3125 -0.140625 C 2.207031 -0.234375 2.15625 -0.378906 2.15625 -0.578125 Z M 13.015625 -6.25 C 13.015625 -6.519531 12.960938 -6.789062 12.859375 -7.0625 C 12.753906 -7.332031 12.609375 -7.570312 12.421875 -7.78125 C 12.242188 -7.988281 12.023438 -8.160156 11.765625 -8.296875 C 11.503906 -8.429688 11.226562 -8.5 10.9375 -8.5 L 7.375 -8.5 L 7.375 -4 L 10.9375 -4 C 11.226562 -4 11.5 -4.0625 11.75 -4.1875 C 12.007812 -4.3125 12.234375 -4.476562 12.421875 -4.6875 C 12.609375 -4.90625 12.753906 -5.144531 12.859375 -5.40625 C 12.960938 -5.675781 13.015625 -5.957031 13.015625 -6.25 Z M 12.296875 -14.078125 C 12.296875 -14.347656 12.242188 -14.597656 12.140625 -14.828125 C 12.046875 -15.054688 11.910156 -15.257812 11.734375 -15.4375 C 11.554688 -15.625 11.335938 -15.769531 11.078125 -15.875 C 10.828125 -15.976562 10.554688 -16.03125 10.265625 -16.03125 L 7.375 -16.03125 L 7.375 -12.125 L 10.21875 -12.125 C 10.53125 -12.125 10.8125 -12.171875 11.0625 -12.265625 C 11.320312 -12.359375 11.539062 -12.492188 11.71875 -12.671875 C 11.894531 -12.847656 12.035156 -13.050781 12.140625 -13.28125 C 12.242188 -13.519531 12.296875 -13.785156 12.296875 -14.078125 Z M 12.296875 -14.078125"/></g><g id="j"><path d="M 1.828125 -3.875 C 1.828125 -4.050781 1.875 -4.191406 1.96875 -4.296875 C 2.070312 -4.410156 2.222656 -4.46875 2.421875 -4.46875 L 5.984375 -4.46875 C 6.128906 -4.46875 6.265625 -4.410156 6.390625 -4.296875 C 6.523438 -4.191406 6.59375 -4.050781 6.59375 -3.875 L 6.59375 -0.625 C 6.59375 -0.457031 6.539062 -0.3125 6.4375 -0.1875 C 6.34375 -0.0625 6.191406 0 5.984375 0 L 2.421875 0 C 2.023438 0 1.828125 -0.207031 1.828125 -0.625 Z M 1.828125 -3.875"/></g><g id="k"><path d="M 3.300781 -2.28125 C 2.101562 -2.28125 1.261719 -3.058594 1.261719 -3.058594 L 0.121094 -1.261719 C 0.121094 -1.261719 1.199219 0.179688 3.839844 0.179688 C 5.941406 0.179688 7.261719 -1.140625 7.261719 -2.519531 C 7.261719 -5.160156 4.019531 -5.160156 4.019531 -5.761719 C 4.019531 -5.941406 4.199219 -6.121094 4.5 -6.121094 C 5.339844 -6.121094 6.058594 -5.460938 6.058594 -5.460938 L 7.199219 -7.261719 C 7.199219 -7.261719 6.121094 -8.578125 3.960938 -8.578125 C 1.859375 -8.578125 0.539062 -7.261719 0.539062 -5.878906 C 0.539062 -3.238281 3.78125 -3.238281 3.78125 -2.640625 C 3.78125 -2.460938 3.601562 -2.28125 3.300781 -2.28125 Z M 3.300781 -2.28125"/></g><g id="m"><path d="M 6.480469 -4.199219 C 6.480469 -3.359375 5.878906 -2.761719 5.160156 -2.761719 C 4.441406 -2.761719 3.839844 -3.359375 3.839844 -4.199219 C 3.839844 -5.039062 4.441406 -5.640625 5.160156 -5.640625 C 5.878906 -5.640625 6.480469 -5.039062 6.480469 -4.199219 Z M 9.839844 -4.199219 C 9.839844 -6.660156 7.921875 -8.578125 5.160156 -8.578125 C 2.398438 -8.578125 0.480469 -6.660156 0.480469 -4.199219 C 0.480469 -1.738281 2.398438 0.179688 5.160156 0.179688 C 7.921875 0.179688 9.839844 -1.738281 9.839844 -4.199219 Z M 9.839844 -4.199219"/></g><g id="n"><path d="M 9 0 L 6.960938 -3.238281 C 6.960938 -3.238281 8.039062 -3.839844 8.039062 -5.578125 C 8.039062 -7.320312 6.839844 -8.519531 4.199219 -8.519531 C 2.398438 -8.519531 0.71875 -8.398438 0.71875 -8.398438 L 0.71875 0 L 3.839844 0 L 3.839844 -2.761719 L 3.960938 -2.761719 L 5.398438 0 Z M 3.839844 -4.921875 L 3.839844 -6.238281 L 4.199219 -6.238281 C 4.621094 -6.238281 4.921875 -5.941406 4.921875 -5.578125 C 4.921875 -5.21875 4.621094 -4.921875 4.199219 -4.921875 Z M 3.839844 -4.921875"/></g><g id="o"><path d="M 3.839844 -3 L 6.960938 -3 L 6.960938 -5.398438 L 3.839844 -5.398438 L 3.839844 -6 L 7.199219 -6 L 7.199219 -8.398438 L 0.71875 -8.398438 L 0.71875 0 L 7.441406 0 L 7.441406 -2.398438 L 3.839844 -2.398438 Z M 3.839844 -3"/></g><g id="l"><path d="M 0.480469 -4.199219 C 0.480469 -1.738281 2.398438 0.179688 4.921875 0.179688 C 7.199219 0.179688 8.28125 -1.140625 8.28125 -1.140625 L 6.839844 -3.421875 C 6.839844 -3.421875 6.121094 -2.761719 5.28125 -2.761719 C 4.441406 -2.761719 3.839844 -3.359375 3.839844 -4.199219 C 3.839844 -5.039062 4.441406 -5.640625 5.28125 -5.640625 C 6.121094 -5.640625 6.839844 -4.980469 6.839844 -4.980469 L 8.28125 -7.261719 C 8.28125 -7.261719 7.199219 -8.578125 4.921875 -8.578125 C 2.398438 -8.578125 0.480469 -6.660156 0.480469 -4.199219 Z M 0.480469 -4.199219"/></g><clipPath id="a"><path d="M 99.636719 62.042969 L 275.136719 62.042969 L 275.136719 270.542969 L 99.636719 270.542969 Z M 99.636719 62.042969"/></clipPath><clipPath id="b"><path d="M 186 93.066406 L 190 93.066406 L 190 101 L 186 101 Z M 186 93.066406"/></clipPath><clipPath id="c"><path d="M 142.210938 123 L 157 123 L 157 138 L 142.210938 138 Z M 142.210938 123"/></clipPath><clipPath id="d"><path d="M 218 124 L 232.960938 124 L 232.960938 138 L 218 138 Z M 218 124"/></clipPath><clipPath id="e"><path d="M 176 129 L 207 129 L 207 171.816406 L 176 171.816406 Z M 176 129"/></clipPath></defs><path transform="matrix(.12726 0 0 .12726 87.037 54.511)" fill="#5CE1E6" fill-rule="evenodd" d="M 790.952509 118.797184 L 796.508446 118.797184 L 820.543244 130.891235 C 836.566443 138.933471 847.156489 144.213108 852.282685 146.730143 C 857.439576 149.216484 874.966869 157.350807 904.833866 171.071722 C 934.73156 184.823333 950.171539 191.76053 951.1845 191.914007 C 952.166765 192.03679 960.116973 195.321214 974.973732 201.705891 C 989.861187 208.090567 1001.310715 212.817683 1009.322314 215.856544 C 1017.303218 218.9261 1028.906224 223.07 1044.069941 228.349637 C 1059.202963 233.629273 1068.810743 236.975089 1072.801195 238.356389 C 1076.791647 239.737689 1081.825755 241.39525 1087.811433 243.359765 C 1093.827807 245.293586 1101.532449 247.657144 1110.98675 250.419744 C 1120.410356 253.21304 1132.443103 256.52816 1147.0236 260.426497 C 1161.604097 264.324833 1175.754854 267.793431 1189.506565 270.832291 C 1203.22758 273.901847 1212.098662 275.835668 1216.089113 276.664448 C 1220.110261 277.493228 1232.818316 279.856786 1254.274668 283.755122 C 1275.731021 287.653458 1289.175775 289.986321 1294.608928 290.845796 C 1300.042082 291.674576 1313.333356 293.761874 1334.513447 297.076995 C 1355.662842 300.422811 1366.406366 302.080371 1366.682628 302.080371 C 1366.95889 302.080371 1377.272674 304.014191 1397.562587 307.912527 C 1417.883196 311.810863 1428.104892 313.806075 1428.227675 313.959553 L 1428.442545 314.143726 L 1427.153322 376.210148 C 1426.324536 417.587762 1424.175831 471.059427 1420.737904 536.594447 C 1417.299976 602.098772 1414.568051 647.927242 1412.572825 674.018468 C 1410.577599 700.140389 1408.306111 722.486757 1405.727665 741.088266 C 1403.14922 759.689775 1400.141033 777.339722 1396.703105 793.976715 C 1393.265177 810.644404 1389.550987 827.434875 1385.560535 844.378824 C 1381.539388 861.322773 1377.978677 876.179424 1374.817011 888.948777 C 1371.686041 901.71813 1367.971851 915.469741 1363.674442 930.203609 C 1359.377032 944.906782 1356.798586 953.777799 1355.939104 956.847355 C 1355.079622 959.886215 1353.821095 963.784551 1352.102131 968.511668 C 1350.383167 973.238784 1348.387941 979.07094 1346.085758 986.008137 C 1343.783574 992.945333 1340.222863 1002.952086 1335.372929 1015.997699 C 1330.492299 1029.043311 1326.501848 1039.449106 1323.340182 1047.215083 C 1320.209212 1055.011755 1316.341543 1064.31251 1311.767871 1075.148042 C 1307.1942 1085.952879 1301.331305 1099.029188 1294.179187 1114.284881 C 1287.02707 1129.571269 1282.72966 1138.442286 1281.317654 1140.959322 C 1279.874952 1143.445662 1274.656669 1152.531548 1265.632108 1168.216979 C 1256.638244 1183.90241 1251.20509 1193.23386 1249.332647 1196.149938 C 1247.4909 1199.066017 1243.040012 1206.402255 1236.041373 1218.220046 C 1229.042734 1230.007141 1224.469062 1237.496857 1222.320358 1240.689196 C 1220.171653 1243.881534 1216.887204 1248.88491 1212.436315 1255.699324 C 1208.016122 1262.513738 1204.455411 1267.762679 1201.723487 1271.538233 C 1198.991562 1275.283091 1195.860592 1279.703252 1192.299881 1284.860106 C 1188.708474 1289.986264 1185.270547 1294.713381 1181.986098 1299.010759 C 1178.701649 1303.308137 1176.123203 1306.930213 1174.281456 1309.846292 C 1172.409013 1312.76237 1169.677088 1316.507228 1166.116378 1321.080866 C 1162.555667 1325.6852 1159.117739 1330.258839 1155.83329 1334.832477 C 1152.518145 1339.406116 1148.957434 1344.133232 1145.089766 1349.013826 C 1141.222097 1353.863724 1137.937648 1358.03832 1135.236419 1361.506919 C 1132.504494 1364.975517 1126.733687 1371.575062 1117.862605 1381.274859 C 1108.991524 1391.005351 1098.554958 1402.117144 1086.52221 1414.610237 C 1074.520159 1427.10333 1063.930113 1437.785384 1054.78277 1446.687097 C 1045.635426 1455.558113 1039.557661 1461.175401 1036.549474 1463.538959 C 1033.541288 1465.902517 1026.542649 1471.888151 1015.522863 1481.465166 C 1004.533772 1491.04218 997.811395 1496.874337 995.355733 1498.961635 C 992.930766 1501.018237 986.914392 1506.175091 977.337308 1514.370806 C 967.760223 1522.535825 961.467587 1527.815461 958.459401 1530.179019 C 955.48191 1532.542577 952.043982 1535.335873 948.176313 1538.528211 C 944.308644 1541.72055 938.936882 1546.079319 932.091722 1551.635215 C 925.215867 1557.191112 919.997584 1561.273621 916.436873 1563.913439 C 912.845466 1566.553257 909.407538 1568.916815 906.123089 1571.004113 C 902.83864 1573.091412 896.822267 1576.682792 888.104664 1581.839646 C 879.387062 1586.965805 873.677646 1590.434403 870.945721 1592.245441 C 868.244492 1594.056479 865.174914 1595.928908 861.736986 1597.862728 C 858.299058 1599.827244 854.707652 1602.037324 850.993462 1604.523665 C 847.279272 1607.040701 844.578043 1608.851739 842.859079 1609.956779 C 841.140115 1611.061819 837.425925 1612.995639 831.685814 1615.788935 C 825.976398 1618.551535 819.100542 1621.743874 811.119639 1625.36595 C 803.108039 1628.95733 797.521406 1631.320888 794.359741 1632.456624 L 789.663286 1634.114184 L 784.506394 1632.855666 C 781.068466 1632.026886 777.354277 1630.645586 773.363825 1628.68107 C 769.342677 1626.74725 762.6203 1623.432129 753.196695 1618.705013 C 743.742393 1613.977897 738.30924 1611.061819 736.897234 1609.956779 C 735.454532 1608.851739 731.801733 1606.396094 725.938839 1602.651236 C 720.075944 1598.906377 715.655751 1596.143777 712.647564 1594.332739 C 709.639378 1592.521701 703.776483 1589.053103 695.05888 1583.926944 C 686.341278 1578.77009 680.324904 1575.17871 677.040455 1573.091412 C 673.756006 1571.004113 670.318079 1568.640555 666.726672 1566.000737 C 663.165961 1563.360919 659.083422 1560.229972 654.50975 1556.638592 C 649.936078 1553.016515 643.858313 1548.105226 636.276454 1541.843332 C 628.694596 1535.612133 622.125698 1530.179019 616.539066 1525.605381 C 610.983129 1521.031742 602.81805 1514.094546 592.105222 1504.793791 C 581.361697 1495.462341 574.516538 1489.630185 571.508351 1487.297322 C 568.500164 1484.933764 561.931266 1479.377868 551.770962 1470.629633 C 541.610657 1461.881399 535.962633 1456.939414 534.826889 1455.834373 C 533.691145 1454.729333 528.595645 1449.787348 519.601781 1441.039114 C 510.57722 1432.290879 504.284584 1426.059681 500.723874 1422.314822 C 497.132467 1418.569964 489.274346 1410.220772 477.118816 1397.328637 C 464.963285 1384.405806 457.657689 1376.486352 455.232722 1373.570273 C 452.807755 1370.654195 449.216348 1366.356817 444.519894 1360.678138 C 439.792743 1354.968764 436.078553 1350.395126 433.346628 1346.926528 C 430.645399 1343.457929 427.913475 1339.835853 425.212246 1336.090995 C 422.480321 1332.346137 419.625613 1328.447801 416.617426 1324.426682 C 413.609239 1320.405564 410.90801 1316.783488 408.483043 1313.59115 C 406.058076 1310.398812 403.970763 1307.544125 402.251799 1305.057784 C 400.532835 1302.571444 398.16926 1299.287019 395.161073 1295.265901 C 392.183582 1291.244782 389.605136 1287.622706 387.456432 1284.430368 C 385.307727 1281.23803 382.453019 1277.094129 378.861612 1271.937275 C 375.300901 1266.811117 372.568976 1262.789999 370.727229 1259.87392 C 368.854787 1256.957842 365.8466 1252.353508 361.702669 1246.12231 C 357.558738 1239.860415 354.857509 1235.563037 353.568286 1233.199479 C 352.279063 1230.835921 348.687657 1224.880982 342.824762 1215.303968 C 336.961867 1205.726953 333.124894 1199.465059 331.252452 1196.548981 C 329.380009 1193.632903 324.744945 1185.652057 317.316566 1172.606444 C 309.888186 1159.560831 304.301553 1149.707557 300.587364 1143.04662 C 296.873174 1136.354988 293.558029 1130.12379 290.703321 1124.291633 C 287.848613 1118.459477 283.858161 1109.711242 278.70127 1098.04693 C 273.544378 1086.382617 270.965932 1080.427678 270.965932 1080.151418 C 270.965932 1079.844463 268.418182 1073.459786 263.261291 1060.966694 C 258.104399 1048.473601 254.113947 1038.620326 251.228543 1031.40687 C 248.373835 1024.193413 244.383384 1013.204403 239.226492 998.50123 C 234.0696 983.767361 228.943404 968.08193 223.786513 951.444936 C 218.629621 934.777248 212.920205 914.487483 206.62757 890.606337 C 200.334934 866.725192 195.914741 848.983158 193.336295 837.318846 C 190.757849 825.654533 187.166443 808.710584 182.592771 786.486999 C 178.019099 764.263413 175.31787 749.683023 174.458388 742.745826 C 173.598906 735.80863 171.726463 714.567302 168.871756 679.021844 C 166.017048 643.476386 164.144605 616.679162 163.285123 598.630173 C 162.425641 580.581184 161.443376 561.427155 160.276936 541.168086 C 159.141192 520.878321 157.575707 487.696421 155.580481 441.622385 C 153.585255 395.517655 152.572294 362.888275 152.572294 343.734246 L 152.572294 315.003202 L 155.365611 313.529815 C 157.207358 312.547557 162.302858 311.381126 170.590719 309.999825 C 178.878581 308.618525 190.328108 306.807487 204.908606 304.566711 C 219.489103 302.356631 241.651459 298.734555 271.395673 293.761874 C 301.139888 288.758498 322.473457 285.136422 335.334991 282.926342 C 348.196524 280.685566 365.232684 277.216968 386.382079 272.489852 C 407.56217 267.793431 425.856857 263.342575 441.296836 259.167979 C 456.736815 255.024078 470.02809 251.125742 481.201355 247.503666 C 492.343925 243.912285 501.061527 241.11899 507.354163 239.185169 C 513.646798 237.251349 519.663172 235.286833 525.372588 233.353013 C 531.112699 231.419193 542.531531 227.244597 559.690474 220.85992 C 576.880113 214.475244 592.964704 207.998481 607.974942 201.491022 C 622.98518 194.952868 630.99678 191.637747 631.979045 191.484269 C 632.992006 191.361487 640.205515 188.23054 653.650268 182.122124 C 667.095021 176.013707 679.250552 170.457811 690.116859 165.454435 C 700.983167 160.451059 711.726691 155.447682 722.286041 150.475002 C 732.876086 145.471625 746.044577 138.933471 761.760818 130.891235 L 785.365876 118.797184 Z M 790.952509 118.797184" stroke="#000" stroke-width="2"/><path transform="matrix(.12726 0 0 .12726 87.037 54.511)" fill="#5CE1E6" fill-rule="evenodd" d="M 769.342677 132.947837 L 774.92931 132.947837 L 798.933412 145.041888 C 814.956612 153.084124 825.546657 158.363761 830.703549 160.880796 C 835.829745 163.367137 853.357037 171.50146 883.25473 185.222375 C 913.121728 198.973986 928.561707 205.911183 929.574668 206.06466 C 930.587629 206.187443 938.507141 209.471867 953.394596 215.856544 C 968.251356 222.24122 979.700883 226.968336 987.712482 230.007197 C 995.724082 233.076753 1007.296392 237.220653 1022.46011 242.50029 C 1037.623827 247.779926 1047.200911 251.125742 1051.191363 252.507042 C 1055.212511 253.888342 1060.215924 255.545903 1066.232297 257.510418 C 1072.217975 259.444239 1079.953313 261.807797 1089.376918 264.570397 C 1098.83122 267.363693 1110.833271 270.678813 1125.413768 274.57715 C 1140.024961 278.475486 1154.175718 281.944084 1167.896733 284.982944 C 1181.617748 288.0525 1190.48883 289.986321 1194.479282 290.815101 C 1198.500429 291.643881 1211.23918 294.007439 1232.664837 297.905775 C 1254.121189 301.804111 1267.565943 304.136974 1272.999096 304.996449 C 1278.43225 305.825229 1291.723525 307.912527 1312.903615 311.227648 C 1334.05301 314.573464 1344.796535 316.231024 1345.072797 316.231024 C 1345.349059 316.231024 1355.662842 318.164844 1375.952755 322.06318 C 1396.273364 325.961517 1406.49506 327.956728 1406.648539 328.110206 L 1406.863409 328.294379 L 1405.574186 390.360801 C 1404.714704 431.738415 1402.566 485.21008 1399.128072 550.7451 C 1395.690144 616.249425 1392.988915 662.077895 1390.993689 688.169121 C 1388.967767 714.291042 1386.696279 736.63741 1384.117834 755.238919 C 1381.539388 773.840428 1378.531201 791.490375 1375.093273 808.127368 C 1371.686041 824.795057 1367.971851 841.585528 1363.950704 858.529477 C 1359.960252 875.473426 1356.368845 890.330077 1353.237875 903.09943 C 1350.076209 915.868783 1346.36202 929.620394 1342.06461 944.323567 C 1337.797896 959.057435 1335.21945 967.928452 1334.359968 970.998008 C 1333.500486 974.036868 1332.211263 977.935205 1330.492299 982.662321 C 1328.773336 987.389437 1326.77811 993.221593 1324.475926 1000.15879 C 1322.204438 1007.095986 1318.613031 1017.102739 1313.763097 1030.148352 C 1308.913163 1043.193964 1304.892016 1053.599759 1301.761046 1061.365736 C 1298.59938 1069.162408 1294.731711 1078.463163 1290.15804 1089.298695 C 1285.584368 1100.103532 1279.721473 1113.179841 1272.569356 1128.435534 C 1265.417238 1143.721922 1261.119828 1152.592939 1259.707822 1155.109975 C 1258.26512 1157.596315 1253.046837 1166.682201 1244.052972 1182.367632 C 1235.028412 1198.053063 1229.595258 1207.384513 1227.753511 1210.300591 C 1225.881068 1213.185974 1221.460876 1220.552908 1214.431541 1232.370699 C 1207.432902 1244.157794 1202.859231 1251.64751 1200.710526 1254.839849 C 1198.561821 1258.032187 1195.277372 1263.035563 1190.857179 1269.849977 C 1186.406291 1276.664392 1182.84558 1281.913332 1180.113655 1285.688886 C 1177.412426 1289.433744 1174.25076 1293.853905 1170.690049 1299.010759 C 1167.098643 1304.136917 1163.691411 1308.864034 1160.376266 1313.161412 C 1157.091817 1317.45879 1154.513371 1321.080866 1152.671624 1323.996945 C 1150.799181 1326.913023 1148.097952 1330.657881 1144.506546 1335.231519 C 1140.945835 1339.835853 1137.507907 1344.409492 1134.223458 1348.98313 C 1130.939009 1353.556769 1127.347603 1358.283885 1123.479934 1363.164479 C 1119.642961 1368.014377 1116.358512 1372.188973 1113.626587 1375.657572 C 1110.925358 1379.12617 1105.123855 1385.725715 1096.252774 1395.425512 C 1087.381692 1405.156004 1076.945126 1416.267797 1064.943074 1428.76089 C 1052.910327 1441.253983 1042.350978 1451.936037 1033.172938 1460.83775 C 1024.025595 1469.708766 1017.947829 1475.326054 1014.939643 1477.689612 C 1011.962152 1480.05317 1004.932817 1486.038804 993.943727 1495.615819 C 982.92394 1505.192833 976.201564 1511.02499 973.776597 1513.112288 C 971.320934 1515.16889 965.335256 1520.325744 955.758172 1528.521459 C 946.181087 1536.686478 939.888451 1541.966114 936.880265 1544.329672 C 933.872078 1546.69323 930.43415 1549.486526 926.566481 1552.678864 C 922.698813 1555.871203 917.357746 1560.229972 910.481891 1565.785868 C 903.636731 1571.341765 898.387752 1575.424274 894.827041 1578.064092 C 891.26633 1580.70391 887.828402 1583.067468 884.543953 1585.154766 C 881.228809 1587.242065 875.243131 1590.833445 866.525528 1595.990299 C 857.77723 1601.116458 852.067814 1604.585056 849.366585 1606.396094 C 846.63466 1608.207132 843.565082 1610.079561 840.127154 1612.013381 C 836.689226 1613.977897 833.128516 1616.187977 829.414326 1618.674318 C 825.66944 1621.191354 822.968211 1623.002392 821.249247 1624.107432 C 819.530283 1625.212472 815.816094 1627.146292 810.106678 1629.939588 C 804.366566 1632.702188 797.521406 1635.894527 789.509807 1639.516603 C 781.498207 1643.107983 775.911575 1645.471541 772.780605 1646.607277 L 768.053454 1648.264837 L 762.896562 1647.006319 C 759.458635 1646.177539 755.744445 1644.796239 751.753993 1642.831723 C 747.732845 1640.897903 741.041164 1637.582782 731.586863 1632.855666 C 722.163257 1628.12855 716.699408 1625.212472 715.287402 1624.107432 C 713.8447 1623.002392 710.222598 1620.546747 704.359703 1616.801889 C 698.496808 1613.05703 694.045919 1610.29443 691.037733 1608.483392 C 688.029546 1606.672354 682.166651 1603.203756 673.449049 1598.077597 C 664.731446 1592.920743 658.715072 1589.329363 655.430624 1587.242065 C 652.146175 1585.154766 648.708247 1582.791208 645.147536 1580.15139 C 641.556129 1577.511572 637.504286 1574.380625 632.899918 1570.789245 C 628.326247 1567.167168 622.248481 1562.255879 614.666623 1555.993985 C 607.11546 1549.762786 600.515866 1544.329672 594.95993 1539.756034 C 589.373297 1535.182395 581.208218 1528.245199 570.49539 1518.944444 C 559.751866 1509.612994 552.906706 1503.780838 549.898519 1501.447975 C 546.890332 1499.084417 540.321435 1493.528521 530.16113 1484.780286 C 520.000826 1476.032052 514.352801 1471.090067 513.217058 1469.985026 C 512.081314 1468.879986 506.985813 1463.938001 497.991949 1455.189767 C 488.967388 1446.441532 482.674753 1440.210334 479.114042 1436.465475 C 475.553331 1432.720617 467.664514 1424.371425 455.508984 1411.47929 C 443.353454 1398.556459 436.078553 1390.637005 433.62289 1387.720926 C 431.197923 1384.804848 427.637212 1380.50747 422.910062 1374.828791 C 418.182911 1369.119417 414.468721 1364.545779 411.767492 1361.077181 C 409.035568 1357.608582 406.334339 1353.986506 403.602414 1350.241648 C 400.901185 1346.49679 398.015781 1342.598454 395.03829 1338.577335 C 392.030103 1334.556217 389.298179 1330.934141 386.873212 1327.741803 C 384.448245 1324.549465 382.360931 1321.694778 380.641968 1319.208437 C 378.953699 1316.722097 376.590124 1313.437672 373.581937 1309.416554 C 370.57375 1305.395435 367.995305 1301.773359 365.8466 1298.581021 C 363.697895 1295.388683 360.843187 1291.244782 357.282476 1286.087928 C 353.691069 1280.96177 350.98984 1276.940652 349.117398 1274.024573 C 347.275651 1271.108495 344.267464 1266.504161 340.123533 1260.272963 C 335.979602 1254.011068 333.247677 1249.71369 331.958455 1247.350132 C 330.669232 1244.986574 327.108521 1239.031635 321.245626 1229.454621 C 315.382731 1219.877606 311.515063 1213.615712 309.64262 1210.699634 C 307.800873 1207.783556 303.135114 1199.80271 295.706734 1186.757097 C 288.278354 1173.711484 282.691722 1163.85821 278.977532 1157.166578 C 275.263342 1150.505641 271.978893 1144.274443 269.124185 1138.442286 C 266.238782 1132.61013 262.24833 1123.861895 257.091438 1112.197583 C 251.965242 1100.53327 249.386796 1094.578331 249.386796 1094.271376 C 249.386796 1093.995116 246.80835 1087.610439 241.651459 1075.117347 C 236.494567 1062.624254 232.504115 1052.770979 229.649407 1045.557523 C 226.794699 1038.344066 222.773552 1027.355056 217.61666 1012.651883 C 212.490464 997.918014 207.333573 982.232583 202.176681 965.59559 C 197.050485 948.927901 191.310373 928.638136 185.017738 904.75699 C 178.725102 880.875845 174.304909 863.103116 171.726463 851.469499 C 169.148018 839.805186 165.587307 822.861237 161.013635 800.637652 C 156.439963 778.414066 153.708038 763.833676 152.848556 756.896479 C 151.989075 749.959283 150.147327 728.717955 147.261924 693.172497 C 144.407216 657.627039 142.565469 630.829815 141.705987 612.780826 C 140.846505 594.731837 139.833544 575.577808 138.6978 555.318739 C 137.562056 535.028974 135.965875 501.847074 133.970649 455.773038 C 131.975424 409.668308 130.962463 377.038928 130.962463 357.884899 L 130.962463 329.153855 L 133.755779 327.680468 C 135.628222 326.69821 140.693026 325.531779 148.980888 324.150478 C 157.268749 322.769178 168.718277 320.95814 183.298774 318.717364 C 197.909967 316.507284 220.072323 312.885208 249.816537 307.912527 C 279.560752 302.909151 300.863626 299.287075 313.725159 297.076995 C 326.586692 294.836219 343.622852 291.367621 364.772247 286.640505 C 385.952338 281.944084 404.247025 277.493228 419.687004 273.318632 C 435.126984 269.174731 448.448954 265.276395 459.591523 261.654319 C 470.734093 258.062938 479.482391 255.269643 485.775027 253.335822 C 492.067663 251.402002 498.05334 249.437486 503.793452 247.503666 C 509.502868 245.569846 520.952395 241.39525 538.111338 235.010573 C 555.270281 228.625897 571.354872 222.149134 586.36511 215.641675 C 601.375348 209.103521 609.386948 205.7884 610.399909 205.634922 C 611.382174 205.51214 618.626379 202.381193 632.071132 196.272777 C 645.515885 190.16436 657.671416 184.608464 668.537723 179.605088 C 679.404031 174.601712 690.116859 169.598335 700.706905 164.625655 C 711.29695 159.622279 724.434745 153.084124 740.181682 145.041888 L 763.756044 132.947837 Z M 769.342677 132.947837" stroke="#000" stroke-width="2"/><g clip-path="url(#a)"><path transform="matrix(.12726 0 0 .12726 87.037 54.511)" fill-rule="evenodd" d="M 789.018674 60.598403 L 795.035048 60.598403 L 820.972985 73.644016 C 838.254711 82.330859 849.673543 88.040233 855.22948 90.741443 C 860.785417 93.442652 879.69402 102.190886 911.955288 117.047537 C 944.216557 131.873493 960.884367 139.363209 961.95872 139.516687 C 963.033072 139.670165 971.597196 143.169459 987.651091 150.075959 C 1003.704986 156.98246 1016.075387 162.077923 1024.700902 165.362348 C 1033.357113 168.646773 1045.850297 173.15902 1062.21115 178.837699 C 1078.572002 184.547073 1088.916481 188.138453 1093.244587 189.642536 C 1097.541997 191.146618 1102.944455 192.926961 1109.451961 195.044954 C 1115.928771 197.132252 1124.247329 199.679984 1134.438329 202.688149 C 1144.629329 205.665618 1157.58295 209.287694 1173.329887 213.46229 C 1189.076824 217.667582 1204.363324 221.41244 1219.189388 224.696865 C 1233.984755 228.011986 1243.56184 230.099284 1247.889945 230.989455 C 1252.218051 231.910322 1265.939066 234.458053 1289.114383 238.632649 C 1312.259004 242.837941 1326.747414 245.385672 1332.610308 246.275844 C 1338.503899 247.19671 1352.83883 249.437486 1375.676493 253.028867 C 1398.544852 256.620247 1410.117162 258.431285 1410.42412 258.431285 C 1410.731078 258.431285 1421.842952 260.518583 1443.759741 264.723875 C 1465.676531 268.929167 1476.696317 271.077856 1476.849796 271.231334 L 1477.095363 271.476898 L 1475.714052 338.454609 C 1474.762483 383.116649 1472.460299 440.824301 1468.746109 511.54687 C 1465.062615 582.26944 1462.11582 631.719987 1459.967115 659.89851 C 1457.787715 688.077034 1455.332052 712.203744 1452.538736 732.27864 C 1449.776115 752.384232 1446.522362 771.415479 1442.838868 789.372381 C 1439.124678 807.359979 1435.10353 825.501055 1430.775425 843.795609 C 1426.478015 862.059467 1422.610346 878.113244 1419.203114 891.895551 C 1415.826578 905.677857 1411.805431 920.503812 1407.170367 936.404112 C 1402.535304 952.273717 1399.772683 961.881427 1398.85181 965.165852 C 1397.900241 968.480972 1396.51893 972.655568 1394.677183 977.751031 C 1392.835436 982.846494 1390.656036 989.139084 1388.200373 996.6288 C 1385.714014 1004.149213 1381.846346 1014.923354 1376.628062 1029.012616 C 1371.379083 1043.101878 1367.050978 1054.336453 1363.643746 1062.747036 C 1360.26721 1071.126924 1356.092583 1081.164372 1351.150562 1092.85938 C 1346.208541 1104.554388 1339.885209 1118.64365 1332.149872 1135.127166 C 1324.44523 1151.610681 1319.810167 1161.187696 1318.275377 1163.888905 C 1316.740588 1166.590114 1311.092564 1176.412694 1301.362001 1193.325947 C 1291.631437 1210.269896 1285.768543 1220.307344 1283.773317 1223.468987 C 1281.778091 1226.599934 1276.989548 1234.550084 1269.40769 1247.288741 C 1261.856527 1260.027398 1256.914506 1268.131026 1254.612322 1271.568929 C 1252.279442 1275.006831 1248.749427 1280.40925 1243.960885 1287.745489 C 1239.172343 1295.081727 1235.304674 1300.791101 1232.388575 1304.842915 C 1229.441779 1308.864034 1226.034547 1313.683237 1222.197574 1319.208437 C 1218.329906 1324.764334 1214.615716 1329.859796 1211.085701 1334.494826 C 1207.52499 1339.160551 1204.762369 1343.058887 1202.736448 1346.189834 C 1200.741222 1349.351477 1197.794426 1353.403291 1193.957453 1358.345276 C 1190.089785 1363.287261 1186.375595 1368.229246 1182.84558 1373.171231 C 1179.284869 1378.113216 1175.4172 1383.208679 1171.242573 1388.45762 C 1167.098643 1393.706561 1163.537932 1398.188112 1160.591136 1401.932971 C 1157.675037 1405.677829 1151.413097 1412.799199 1141.866708 1423.29708 C 1132.289624 1433.794962 1121.024271 1445.76623 1108.039955 1459.272276 C 1095.086334 1472.747627 1083.667502 1484.289157 1073.78346 1493.896867 C 1063.899418 1503.473882 1057.361216 1509.551603 1054.107463 1512.099334 C 1050.85371 1514.647066 1043.302547 1521.093133 1031.423278 1531.437537 C 1019.54401 1541.751245 1012.269109 1548.043835 1009.659968 1550.315306 C 1007.02013 1552.556082 1000.54332 1558.111978 990.198841 1566.9523 C 979.854362 1575.792621 973.070594 1581.471299 969.847536 1584.019031 C 966.593783 1586.566762 962.879593 1589.574927 958.735663 1593.01283 C 954.561036 1596.450732 948.759533 1601.177849 941.361849 1607.194178 C 933.964165 1613.179812 928.316141 1617.599973 924.448472 1620.45466 C 920.611499 1623.278652 916.897309 1625.826383 913.336598 1628.097854 C 909.806583 1630.33863 903.299077 1634.236966 893.906167 1639.762167 C 884.482562 1645.318063 878.312709 1649.062922 875.365914 1651.027438 C 872.449815 1652.961258 869.13467 1654.987165 865.42048 1657.074463 C 861.70629 1659.192456 857.869317 1661.58671 853.84817 1664.287919 C 849.827022 1666.989129 846.910922 1668.922949 845.03848 1670.120076 C 843.196733 1671.317203 839.175585 1673.404501 833.005732 1676.412665 C 826.83588 1679.42083 819.438196 1682.858733 810.781985 1686.757069 C 802.125774 1690.655405 796.1094 1693.203137 792.732864 1694.400263 L 787.637364 1696.211301 L 782.081427 1694.860697 C 778.367237 1693.93983 774.34609 1692.435748 770.017984 1690.34845 C 765.720574 1688.261152 758.445674 1684.669771 748.285369 1679.574308 C 738.094369 1674.478845 732.231474 1671.317203 730.665989 1670.120076 C 729.1312 1668.922949 725.20214 1666.313826 718.878809 1662.262012 C 712.524781 1658.210199 707.766935 1655.202034 704.513182 1653.268213 C 701.259429 1651.303698 694.936097 1647.558839 685.543187 1642.033639 C 676.119582 1636.477742 669.642771 1632.579406 666.08206 1630.33863 C 662.52135 1628.097854 658.837856 1625.550123 654.970187 1622.695436 C 651.102518 1619.840749 646.713021 1616.464237 641.771 1612.565901 C 636.828979 1608.667565 630.260081 1603.357233 622.095002 1596.60421 C 613.899228 1589.881883 606.808502 1584.019031 600.792128 1579.077046 C 594.775755 1574.135061 585.966065 1566.645344 574.393754 1556.607896 C 562.821444 1546.570448 555.42376 1540.277858 552.170007 1537.730127 C 548.94695 1535.182395 541.825528 1529.166066 530.867133 1519.742529 C 519.908738 1510.288296 513.830973 1504.977965 512.572446 1503.780838 C 511.344615 1502.583711 505.880765 1497.242684 496.150202 1487.819147 C 486.419638 1478.364914 479.63587 1471.642587 475.768201 1467.590773 C 471.900533 1463.538959 463.428496 1454.54516 450.290701 1440.609376 C 437.183601 1426.673592 429.325481 1418.140226 426.685643 1414.978584 C 424.076502 1411.847636 420.208833 1407.181911 415.113333 1401.042799 C 410.017833 1394.903687 405.996685 1389.961702 403.080585 1386.216844 C 400.13379 1382.471986 397.217691 1378.57365 394.270896 1374.521836 C 391.354796 1370.470022 388.254522 1366.26473 385.000769 1361.936656 C 381.777712 1357.577887 378.830916 1353.679551 376.221775 1350.241648 C 373.581937 1346.803745 371.341145 1343.734189 369.499398 1341.03298 C 367.657651 1338.331771 365.109901 1334.801782 361.856148 1330.473708 C 358.633091 1326.114938 355.839774 1322.216602 353.537591 1318.778699 C 351.204711 1315.310101 348.135133 1310.828549 344.267464 1305.272653 C 340.399795 1299.747452 337.483696 1295.388683 335.457774 1292.257736 C 333.462548 1289.096093 330.208795 1284.154108 325.757906 1277.401085 C 321.276322 1270.678757 318.329527 1266.013032 316.948216 1263.465301 C 315.566906 1260.917569 311.699237 1254.471502 305.375906 1244.127098 C 299.052574 1233.81339 294.877948 1227.060367 292.882722 1223.898724 C 290.8568 1220.767777 285.853387 1212.142325 277.811092 1198.053063 C 269.799492 1183.963801 263.783119 1173.343138 259.761971 1166.129681 C 255.740824 1158.94692 252.210808 1152.193897 249.110534 1145.901307 C 246.040956 1139.608717 241.71285 1130.185181 236.156914 1117.569306 C 230.600977 1104.984126 227.80766 1098.538059 227.80766 1098.261799 C 227.80766 1097.954843 225.04504 1091.048342 219.489103 1077.572991 C 213.933166 1064.097641 209.605061 1053.446281 206.504786 1045.649609 C 203.435208 1037.852937 199.107103 1026.004451 193.551166 1010.134847 C 187.995229 994.234547 182.439292 977.321293 176.883355 959.333695 C 171.327418 941.346097 165.157566 919.460163 158.373798 893.675893 C 151.559334 867.922319 146.770791 848.737594 144.008171 836.152414 C 141.214854 823.567235 137.377881 805.272681 132.43586 781.299449 C 127.493839 757.326217 124.547044 741.579395 123.62617 734.089678 C 122.705297 726.599962 120.710071 703.670379 117.609797 665.300929 C 114.509523 626.931479 112.514297 598.016262 111.593423 578.524582 C 110.67255 559.032901 109.598197 538.37479 108.33967 516.488856 C 107.111839 494.602922 105.423571 458.781203 103.24417 409.023701 C 101.095465 359.296894 100.021113 324.058392 100.021113 303.40028 L 100.021113 272.367069 L 103.029299 270.801596 C 105.024525 269.757947 110.519071 268.468733 119.451544 266.964651 C 128.414713 265.460568 140.754418 263.526748 156.501355 261.132494 C 172.248292 258.738241 196.160307 254.839905 228.268097 249.437486 C 260.375887 244.035068 283.367029 240.136732 297.272219 237.742478 C 311.177409 235.348224 329.533488 231.603366 352.371151 226.507903 C 375.208814 221.41244 394.976899 216.623933 411.644709 212.111686 C 428.31252 207.630134 442.678146 203.424842 454.710894 199.526506 C 466.743641 195.62817 476.167247 192.650701 482.951015 190.532707 C 489.734783 188.445409 496.211593 186.358111 502.412142 184.240117 C 508.581994 182.152819 520.921699 177.640572 539.431257 170.764767 C 557.97151 163.858266 575.314628 156.890374 591.522002 149.861091 C 607.729376 142.801112 616.385587 139.209731 617.459939 139.056254 C 618.534291 138.902776 626.331021 135.526264 640.850126 128.957414 C 655.338536 122.357869 668.476332 116.372235 680.202121 110.969816 C 691.92791 105.567398 703.500221 100.164979 714.919052 94.793256 C 726.337884 89.390838 740.550032 82.330859 757.5248 73.644016 L 783.002301 60.598403 Z M 789.018674 60.598403" stroke="#000" stroke-width="2"/></g><path transform="matrix(.12726 0 0 .12726 87.037 54.511)" fill="#FFBD59" fill-rule="evenodd" d="M 791.566424 125.550207 L 797.122361 125.550207 L 821.15716 137.644258 C 837.180359 145.686494 847.770404 150.966131 852.8966 153.452471 C 858.053492 155.969507 875.580784 164.073135 905.478478 177.824745 C 935.345475 191.576356 950.785455 198.513553 951.798415 198.66703 C 952.811376 198.789813 960.730889 202.074238 975.618344 208.458914 C 990.475103 214.84359 1001.92463 219.540011 1009.93623 222.609567 C 1017.947829 225.648427 1029.52014 229.823024 1044.683857 235.10266 C 1059.847574 240.382296 1069.424659 243.728112 1073.415111 245.109412 C 1077.436258 246.490712 1082.439671 248.148273 1088.425349 250.112789 C 1094.441723 252.046609 1102.17706 254.410167 1111.600666 257.172767 C 1121.054967 259.966063 1133.057018 263.281184 1147.637516 267.17952 C 1162.218013 271.077856 1176.399465 274.546454 1190.12048 277.585314 C 1203.841496 280.65487 1212.712577 282.588691 1216.703029 283.417471 C 1220.724177 284.246251 1233.432231 286.609809 1254.888584 290.508145 C 1276.344937 294.375786 1289.78969 296.739344 1295.222844 297.568124 C 1300.655998 298.427599 1313.947272 300.484202 1335.127363 303.830018 C 1356.276758 307.175834 1367.020282 308.833394 1367.296544 308.833394 C 1367.572806 308.833394 1377.88659 310.767214 1398.176503 314.665551 C 1418.497111 318.533191 1428.718807 320.559098 1428.872286 320.712576 L 1429.087157 320.896749 L 1427.797934 382.963171 C 1426.938452 424.340785 1424.789747 477.81245 1421.351819 543.316775 C 1417.913891 608.851795 1415.212663 654.680265 1413.186741 680.771491 C 1411.191515 706.893412 1408.920027 729.23978 1406.341581 747.841289 C 1403.763135 766.442798 1400.754948 784.092745 1397.317021 800.729738 C 1393.909789 817.397427 1390.164903 834.187898 1386.174451 851.131847 C 1382.183999 868.075796 1378.592593 882.932447 1375.461623 895.7018 C 1372.299957 908.471153 1368.585767 922.222764 1364.288357 936.925937 C 1359.990948 951.659805 1357.443198 960.530822 1356.583716 963.600378 C 1355.724234 966.639239 1354.435011 970.537575 1352.716047 975.264691 C 1350.997083 979.991807 1349.001857 985.823963 1346.699673 992.76116 C 1344.428185 999.698356 1340.836779 1009.674413 1335.986845 1022.750722 C 1331.106215 1035.796335 1327.115763 1046.202129 1323.954097 1053.968106 C 1320.823128 1061.764778 1316.955459 1071.065533 1312.381787 1081.901065 C 1307.808115 1092.705902 1301.945221 1105.751515 1294.793103 1121.037904 C 1287.640985 1136.324293 1283.343576 1145.195309 1281.93157 1147.68165 C 1280.488868 1150.198686 1275.270584 1159.284571 1266.27672 1174.970002 C 1257.252159 1190.655433 1251.819006 1199.956188 1249.977259 1202.872266 C 1248.104816 1205.788344 1243.684623 1213.155278 1236.655289 1224.973069 C 1229.65665 1236.760164 1225.082978 1244.24988 1222.934273 1247.442219 C 1220.785568 1250.634557 1217.501119 1255.637933 1213.080927 1262.452347 C 1208.630038 1269.266762 1205.069327 1274.515702 1202.337402 1278.291256 C 1199.636173 1282.036114 1196.474508 1286.456275 1192.913797 1291.613129 C 1189.32239 1296.739288 1185.884462 1301.466404 1182.600013 1305.763782 C 1179.315565 1310.06116 1176.737119 1313.683237 1174.895372 1316.599315 C 1173.022929 1319.515393 1170.3217 1323.260251 1166.730293 1327.83389 C 1163.169582 1332.438223 1159.731655 1337.011862 1156.447206 1341.5855 C 1153.162757 1346.159139 1149.57135 1350.886255 1145.703681 1355.736153 C 1141.866708 1360.616747 1138.551564 1364.760648 1135.850335 1368.259942 C 1133.11841 1371.72854 1127.347603 1378.29739 1118.476521 1388.027882 C 1109.60544 1397.758375 1099.168873 1408.870167 1087.166822 1421.36326 C 1075.134075 1433.856353 1064.544029 1444.538407 1055.396686 1453.44012 C 1046.249342 1462.311137 1040.171577 1467.928424 1037.16339 1470.291982 C 1034.155203 1472.65554 1027.156565 1478.610479 1016.136778 1488.218189 C 1005.147688 1497.795204 998.425311 1503.62736 996.000344 1505.683962 C 993.544681 1507.77126 987.559004 1512.928115 977.981919 1521.123829 C 968.374139 1529.288848 962.081503 1534.568484 959.104012 1536.932042 C 956.095825 1539.2956 952.657897 1542.088896 948.790229 1545.281234 C 944.92256 1548.473573 939.581494 1552.832342 932.705638 1558.388238 C 925.829782 1563.944135 920.611499 1568.026644 917.050788 1570.666462 C 913.459382 1573.30628 910.05215 1575.669839 906.737005 1577.757137 C 903.452556 1579.844435 897.466878 1583.435815 888.71858 1588.592669 C 880.000977 1593.718828 874.291562 1597.187426 871.559637 1598.998464 C 868.858408 1600.809502 865.788829 1602.681931 862.350902 1604.615751 C 858.912974 1606.580267 855.352263 1608.790347 851.607377 1611.276688 C 847.893188 1613.793724 845.191959 1615.604762 843.472995 1616.709802 C 841.754031 1617.814842 838.039841 1619.748662 832.330425 1622.541958 C 826.590314 1625.304559 819.745154 1628.496897 811.733554 1632.118973 C 803.721955 1635.710353 798.135322 1638.073911 795.004352 1639.178952 L 790.277201 1640.867207 L 785.12031 1639.608689 C 781.682382 1638.779909 777.968192 1637.398609 773.97774 1635.434093 C 769.956593 1633.500273 763.234216 1630.154457 753.81061 1625.458036 C 744.356309 1620.73092 738.923155 1617.814842 737.511149 1616.709802 C 736.068447 1615.604762 732.415649 1613.149117 726.552754 1609.404259 C 720.68986 1605.6594 716.269667 1602.8968 713.26148 1601.085762 C 710.253293 1599.274724 704.390399 1595.806126 695.672796 1590.679967 C 686.955193 1585.523113 680.93882 1581.931733 677.654371 1579.844435 C 674.369922 1577.757137 670.931994 1575.393578 667.371283 1572.75376 C 663.779877 1570.113942 659.697337 1566.982995 655.123666 1563.391615 C 650.549994 1559.769539 644.472229 1554.858249 636.89037 1548.596355 C 629.308512 1542.365156 622.739614 1536.932042 617.152981 1532.358404 C 611.597044 1527.784765 603.431966 1520.816873 592.719137 1511.516119 C 581.975613 1502.215364 575.130453 1496.383208 572.122266 1494.050345 C 569.11408 1491.686787 562.545182 1486.130891 552.384878 1477.382656 C 542.224573 1468.634422 536.576549 1463.692437 535.440805 1462.587397 C 534.305061 1461.482356 529.209561 1456.540371 520.215696 1447.792137 C 511.191136 1439.043902 504.8985 1432.812704 501.337789 1429.067845 C 497.746382 1425.322987 489.888262 1416.973795 477.732732 1404.08166 C 465.577201 1391.158829 458.3023 1383.239375 455.846638 1380.323297 C 453.421671 1377.407218 449.86096 1373.10984 445.133809 1367.400466 C 440.406658 1361.721787 436.692469 1357.148149 433.99124 1353.679551 C 431.259315 1350.210953 428.558086 1346.588877 425.826161 1342.844018 C 423.124932 1339.09916 420.239529 1335.200824 417.262038 1331.179706 C 414.253851 1327.158587 411.521926 1323.536511 409.096959 1320.344173 C 406.671992 1317.151835 404.584679 1314.297148 402.865715 1311.810807 C 401.146751 1309.324467 398.813872 1306.040042 395.805685 1302.018924 C 392.797498 1297.997805 390.219052 1294.375729 388.070347 1291.183391 C 385.921642 1287.991053 383.066934 1283.847152 379.506224 1278.690298 C 375.914817 1273.56414 373.213588 1269.543022 371.341145 1266.626943 C 369.468702 1263.710865 366.491211 1259.106531 362.34728 1252.875333 C 358.172654 1246.613439 355.471425 1242.31606 354.182202 1239.952502 C 352.892979 1237.588944 349.332268 1231.634005 343.469373 1222.056991 C 337.606479 1212.479976 333.73881 1206.218082 331.866367 1203.302004 C 330.02462 1200.385926 325.358861 1192.40508 317.930481 1179.359467 C 310.502102 1166.313854 304.915469 1156.46058 301.201279 1149.768948 C 297.487089 1143.108011 294.202641 1136.876813 291.317237 1131.044656 C 288.462529 1125.2125 284.472077 1116.464265 279.315185 1104.799953 C 274.158294 1093.13564 271.610544 1087.150006 271.610544 1086.873746 C 271.610544 1086.597486 269.032098 1080.212809 263.875206 1067.719717 C 258.718315 1055.226624 254.727863 1045.373349 251.873155 1038.159893 C 248.987751 1030.946436 244.997299 1019.957426 239.840408 1005.254253 C 234.714212 990.520384 229.55732 974.834953 224.400428 958.167264 C 219.243537 941.530271 213.534121 921.240506 207.241485 897.35936 C 200.94885 873.478215 196.528657 855.705486 193.950211 844.041173 C 191.371765 832.407556 187.811054 815.463607 183.206687 793.240022 C 178.633015 771.016437 175.931786 756.436046 175.072304 749.498849 C 174.212822 742.561653 172.340379 721.320325 169.485671 685.774867 C 166.630963 650.229409 164.758521 623.432186 163.929734 605.383196 C 163.070252 587.334207 162.057292 568.180178 160.921548 547.921109 C 159.755108 527.631344 158.189623 494.449444 156.194397 448.375409 C 154.199171 402.270678 153.18621 369.641298 153.18621 350.487269 L 153.18621 321.725529 L 155.979526 320.282838 C 157.851969 319.30058 162.916774 318.134149 171.204635 316.752849 C 179.492497 315.340853 190.942024 313.56051 205.522521 311.319735 C 220.103019 309.109654 242.29607 305.487578 272.040285 300.484202 C 301.784499 295.511521 323.087373 291.889445 335.948906 289.679365 C 348.81044 287.438589 365.8466 283.969991 386.995995 279.242875 C 408.176086 274.546454 426.470773 270.095598 441.910752 265.921002 C 457.350731 261.746406 470.672701 257.878765 481.815271 254.256689 C 492.95784 250.665309 501.706139 247.872013 507.998774 245.938192 C 514.29141 244.004372 520.277088 242.039856 526.017199 240.106036 C 531.726615 238.172216 543.176142 233.99762 560.335086 227.612943 C 577.494029 221.228267 593.578619 214.751504 608.588858 208.244045 C 623.599096 201.705891 631.610695 198.39077 632.623656 198.237293 C 633.605921 198.11451 640.850126 194.983563 654.264184 188.875147 C 667.708937 182.766731 679.864467 177.210834 690.730775 172.207458 C 701.597082 167.204082 712.340607 162.200706 722.930652 157.228025 C 733.490002 152.224649 746.658493 145.686494 762.374734 137.644258 L 785.979792 125.550207 Z M 791.566424 125.550207" stroke="#000" stroke-width="2"/><path transform="matrix(.12726 0 0 .12726 87.037 54.511)" fill-rule="evenodd" d="M 789.663286 169.997378 L 794.850873 169.997378 L 817.136012 181.354735 C 831.992772 188.936538 841.784727 193.909219 846.573269 196.272777 C 851.331115 198.636335 867.599881 206.279529 895.318173 219.20236 C 923.036466 232.155886 937.340701 238.69404 938.292271 238.816823 C 939.213144 238.939605 946.580132 242.009161 960.362539 248.02549 C 974.144946 254.04182 984.765687 258.492676 992.194067 261.347363 C 999.622447 264.232746 1010.365971 268.161778 1024.42464 273.103763 C 1038.483309 278.076443 1047.35439 281.20739 1051.06858 282.5273 C 1054.78277 283.847209 1059.417833 285.412682 1065.004466 287.22372 C 1070.560403 289.065454 1077.743216 291.275534 1086.491515 293.884657 C 1095.239813 296.524475 1106.382382 299.655422 1119.919223 303.308193 C 1133.425368 306.960965 1146.563163 310.24539 1159.301914 313.100077 C 1172.040664 315.98546 1180.267134 317.827193 1183.981324 318.594582 C 1187.695513 319.392667 1199.482694 321.602747 1219.373562 325.255519 C 1239.26443 328.938986 1251.726918 331.149066 1256.791723 331.916455 C 1261.825831 332.71454 1274.165536 334.679055 1293.780142 337.810003 C 1313.425444 340.94095 1323.370878 342.506423 1323.616444 342.506423 C 1323.892706 342.506423 1333.439095 344.348157 1352.286306 348.000928 C 1371.102821 351.6537 1380.587818 353.556825 1380.710602 353.679607 L 1380.925472 353.894476 L 1379.728337 412.308126 C 1378.930246 451.260791 1376.93502 501.570814 1373.742659 563.268889 C 1370.580993 624.936268 1368.063939 668.063529 1366.191496 692.650673 C 1364.349749 717.20712 1362.23174 738.264274 1359.837469 755.760743 C 1357.443198 773.287908 1354.649881 789.894206 1351.488215 805.579637 C 1348.295854 821.265068 1344.857926 837.073281 1341.143736 853.004277 C 1337.429547 868.965968 1334.114402 882.932447 1331.198302 894.965107 C 1328.251507 906.997766 1324.813579 919.920597 1320.823128 933.764294 C 1316.863371 947.638687 1314.4691 955.987879 1313.67101 958.873262 C 1312.87292 961.758645 1311.675784 965.411416 1310.110299 969.862272 C 1308.514118 974.282433 1306.641675 979.776938 1304.523666 986.315092 C 1302.405657 992.853247 1299.090513 1002.276783 1294.578232 1014.555007 C 1290.065952 1026.833231 1286.351762 1036.625115 1283.435663 1043.961353 C 1280.519564 1051.266897 1276.928157 1060.045827 1272.692139 1070.236753 C 1268.45612 1080.427678 1263.022967 1092.705902 1256.392677 1107.071424 C 1249.762388 1121.467642 1245.771936 1129.816834 1244.452018 1132.180392 C 1243.132099 1134.513255 1238.282165 1143.077316 1229.932912 1157.872575 C 1221.552963 1172.63714 1216.518854 1181.385374 1214.799891 1184.117279 C 1213.080927 1186.879879 1208.967692 1193.78638 1202.460185 1204.898173 C 1195.983375 1216.009966 1191.716661 1223.069944 1189.752131 1226.078109 C 1187.756905 1229.086274 1184.687327 1233.782695 1180.574092 1240.198067 C 1176.460857 1246.613439 1173.145712 1251.555424 1170.628658 1255.085413 C 1168.111603 1258.615402 1165.195504 1262.820694 1161.880359 1267.639897 C 1158.565215 1272.489795 1155.372853 1276.909956 1152.333971 1280.96177 C 1149.295088 1285.013584 1146.900817 1288.420791 1145.181853 1291.152696 C 1143.462889 1293.915296 1140.915139 1297.445285 1137.599994 1301.742664 C 1134.28485 1306.070738 1131.123184 1310.368116 1128.053606 1314.69619 C 1125.014723 1318.993568 1121.699578 1323.444424 1118.108172 1328.018063 C 1114.547461 1332.591701 1111.477882 1336.520733 1108.960828 1339.774462 C 1106.443774 1343.058887 1101.072012 1349.25939 1092.845542 1358.406667 C 1084.619072 1367.553944 1074.9499 1378.02113 1063.80733 1389.777529 C 1052.664761 1401.533928 1042.84211 1411.602072 1034.370074 1419.98196 C 1025.867342 1428.331152 1020.250013 1433.610788 1017.456697 1435.851564 C 1014.663381 1438.061644 1008.155874 1443.678932 997.964874 1452.703426 C 987.743178 1461.727921 981.511934 1467.222426 979.271142 1469.186942 C 976.999654 1471.120762 971.443717 1475.970661 962.54194 1483.675246 C 953.670858 1491.379832 947.838659 1496.352512 945.045343 1498.593288 C 942.252027 1500.803368 939.059665 1503.412491 935.498954 1506.420656 C 931.907548 1509.428821 926.934831 1513.542026 920.580803 1518.760271 C 914.19608 1524.009212 909.376842 1527.846157 906.061698 1530.332497 C 902.746553 1532.818837 899.554192 1535.028917 896.484613 1536.993433 C 893.445731 1538.957949 887.889794 1542.365156 879.786107 1547.184359 C 871.68242 1552.034258 866.402745 1555.287987 863.885691 1557.006938 C 861.337941 1558.695194 858.513929 1560.475536 855.321567 1562.286575 C 852.129206 1564.128308 848.814061 1566.215606 845.376133 1568.579164 C 841.90751 1570.912027 839.390455 1572.630978 837.82497 1573.674627 C 836.22879 1574.718276 832.760166 1576.529314 827.480491 1579.138437 C 822.170121 1581.778255 815.785398 1584.78642 808.357018 1588.162931 C 800.928638 1591.570138 795.771747 1593.780219 792.855647 1594.823868 L 788.46615 1596.389341 L 783.708304 1595.22291 C 780.515942 1594.455521 777.078014 1593.135612 773.363825 1591.293878 C 769.649635 1589.48284 763.418391 1586.351893 754.670092 1581.901037 C 745.891098 1577.450181 740.85699 1574.718276 739.537071 1573.674627 C 738.217152 1572.630978 734.840616 1570.328811 729.376767 1566.798822 C 723.943613 1563.268832 719.830378 1560.65971 717.067757 1558.971454 C 714.274441 1557.252503 708.841287 1553.998773 700.7376 1549.148875 C 692.664609 1544.329672 687.077977 1540.922465 684.039094 1538.957949 C 680.969516 1536.993433 677.80785 1534.783353 674.492705 1532.297013 C 671.177561 1529.810672 667.401979 1526.863899 663.135265 1523.487387 C 658.899247 1520.08018 653.251223 1515.44515 646.221888 1509.551603 C 639.192554 1503.688751 633.114789 1498.593288 627.927201 1494.265214 C 622.77031 1489.967836 615.188451 1483.429682 605.243017 1474.650752 C 595.297583 1465.902517 588.943556 1460.408012 586.15024 1458.197932 C 583.356923 1455.987851 577.279158 1450.738911 567.855553 1442.512501 C 558.431947 1434.286091 553.182968 1429.651061 552.139311 1428.607412 C 551.064959 1427.533067 546.368504 1422.898038 538.019251 1414.671628 C 529.669998 1406.445218 523.807103 1400.55167 520.491958 1397.021681 C 517.176814 1393.491692 509.901913 1385.664324 498.605864 1373.508882 C 487.340512 1361.353441 480.587439 1353.89442 478.315951 1351.162515 C 476.075159 1348.399915 472.760015 1344.348101 468.370517 1339.007073 C 464.011716 1333.63535 460.543093 1329.337972 458.026038 1326.053547 C 455.508984 1322.799818 452.99193 1319.392611 450.474876 1315.862621 C 447.957821 1312.332632 445.317984 1308.67986 442.524668 1304.904306 C 439.731351 1301.098057 437.214297 1297.69085 434.973505 1294.682685 C 432.702017 1291.705216 430.768182 1289.004007 429.202697 1286.671144 C 427.606517 1284.307586 425.39642 1281.23803 422.6338 1277.43178 C 419.840483 1273.656227 417.446212 1270.24902 415.450986 1267.240855 C 413.486456 1264.23269 410.815923 1260.334354 407.500778 1255.484455 C 404.185634 1250.665252 401.668579 1246.859003 399.949616 1244.127098 C 398.230652 1241.364498 395.437335 1237.067119 391.600362 1231.173572 C 387.732694 1225.31072 385.215639 1221.258906 384.018504 1219.01813 C 382.821368 1216.80805 379.506224 1211.190763 374.07307 1202.166268 C 368.639916 1193.141774 365.079205 1187.278922 363.329546 1184.516321 C 361.610582 1181.784416 357.313172 1174.264004 350.406621 1161.98578 C 343.500069 1149.676861 338.343178 1140.406802 334.90525 1134.144908 C 331.436626 1127.852318 328.397744 1121.989466 325.72721 1116.494961 C 323.087373 1111.000456 319.373183 1102.774046 314.615337 1091.785035 C 309.826794 1080.826721 307.432523 1075.209433 307.432523 1074.933173 C 307.432523 1074.687609 305.038252 1068.671279 300.280406 1056.884184 C 295.491863 1045.127785 291.777674 1035.857726 289.137836 1029.074007 C 286.497999 1022.259593 282.783809 1011.945885 277.995267 998.071492 C 273.206724 984.227794 268.448878 969.46323 263.660336 953.777799 C 258.902489 938.092368 253.592119 918.99973 247.75992 896.53058 C 241.927721 874.06143 237.814486 857.33235 235.420215 846.34334 C 233.025944 835.385025 229.710799 819.423334 225.474781 798.519658 C 221.238763 777.615982 218.721708 763.895067 217.923618 757.356913 C 217.125528 750.818758 215.406564 730.805253 212.736031 697.347093 C 210.096193 663.888933 208.377229 638.687879 207.579139 621.682539 C 206.781048 604.707894 205.860175 586.658905 204.785823 567.566267 C 203.71147 548.504324 202.268768 517.256245 200.396325 473.883419 C 198.554578 430.479897 197.633705 399.753642 197.633705 381.735348 L 197.633705 354.661865 L 200.212151 353.31126 C 201.931115 352.390393 206.62757 351.285353 214.332211 349.965444 C 222.036853 348.676231 232.626898 346.957279 246.163739 344.869981 C 259.70058 342.782683 280.236059 339.375476 307.831569 334.679055 C 335.427078 329.982635 355.195163 326.575428 367.105127 324.48813 C 379.045787 322.400832 394.854115 319.116407 414.468721 314.696246 C 434.083327 310.24539 451.058095 306.070794 465.393026 302.141762 C 479.727957 298.212731 492.067663 294.559959 502.412142 291.152752 C 512.756621 287.745545 520.829612 285.136422 526.661811 283.325384 C 532.49401 281.483651 538.080642 279.641917 543.391013 277.830879 C 548.701383 275.989145 559.291429 272.090809 575.222541 266.07448 C 591.122957 260.05815 606.041108 253.980429 619.976993 247.841317 C 633.912879 241.702205 641.310563 238.540562 642.262132 238.41778 C 643.183006 238.294998 649.874687 235.348224 662.337175 229.608155 C 674.799663 223.837389 686.095711 218.619144 696.163929 213.922724 C 706.232146 209.226303 716.208275 204.499187 726.00023 199.802766 C 735.822881 195.106346 748.009107 188.967234 762.6203 181.38543 L 784.506394 169.997378 Z M 789.663286 169.997378" stroke="#000" stroke-width="2"/><g clip-path="url(#b)"><path fill="#FFF" d="M 187.621094 100.171875 C 188.398438 100.171875 189.035156 99.539062 189.035156 98.765625 L 189.035156 94.558594 C 189.035156 93.785156 188.398438 93.15625 187.621094 93.15625 C 186.84375 93.15625 186.207031 93.785156 186.207031 94.558594 L 186.207031 98.765625 C 186.207031 99.539062 186.84375 100.171875 187.621094 100.171875 Z M 187.621094 100.171875"/></g><path fill="#FFF" d="M 182.953125 100.449219 C 183.519531 99.890625 183.519531 99.046875 182.953125 98.488281 L 180.125 95.679688 C 179.558594 95.121094 178.710938 95.121094 178.144531 95.679688 C 177.578125 96.242188 177.578125 97.082031 178.144531 97.644531 L 180.972656 100.449219 C 181.539062 101.011719 182.386719 101.011719 182.953125 100.449219 Z M 182.953125 100.449219"/><path fill="#FFF" d="M 192.289062 100.449219 C 192.574219 100.730469 192.925781 100.871094 193.28125 100.871094 C 193.632812 100.871094 193.988281 100.730469 194.269531 100.449219 L 197.101562 97.644531 C 197.664062 97.082031 197.664062 96.242188 197.101562 95.679688 C 196.535156 95.121094 195.683594 95.121094 195.121094 95.679688 L 192.289062 98.488281 C 191.722656 99.046875 191.722656 99.890625 192.289062 100.449219 Z M 192.289062 100.449219"/><path fill="#FFF" d="M 174.253906 112.515625 C 174.113281 113.007812 174.253906 113.570312 174.605469 113.992188 L 180.054688 119.253906 L 178.78125 126.617188 C 178.710938 127.109375 178.921875 127.671875 179.347656 128.019531 C 179.558594 128.230469 179.910156 128.300781 180.195312 128.300781 C 180.40625 128.300781 180.621094 128.230469 180.832031 128.160156 L 187.621094 124.652344 L 194.410156 128.160156 C 194.90625 128.441406 195.472656 128.371094 195.898438 128.019531 C 196.320312 127.742188 196.535156 127.179688 196.464844 126.617188 L 195.191406 119.253906 L 200.636719 113.992188 C 200.988281 113.640625 201.132812 113.078125 200.988281 112.515625 C 200.847656 111.957031 200.355469 111.605469 199.859375 111.535156 L 192.289062 110.484375 L 188.894531 103.75 C 188.683594 103.257812 188.1875 102.976562 187.621094 102.976562 C 187.054688 102.976562 186.5625 103.257812 186.347656 103.75 L 182.953125 110.484375 L 175.386719 111.535156 C 174.890625 111.675781 174.394531 112.027344 174.253906 112.515625 Z M 174.253906 112.515625"/><path fill="#FFF" d="M 167.675781 115.675781 C 167.464844 115.183594 166.96875 114.902344 166.402344 114.902344 C 165.835938 114.902344 165.410156 115.183594 165.128906 115.675781 L 163.078125 119.671875 L 158.410156 120.304688 C 157.84375 120.375 157.417969 120.726562 157.277344 121.285156 C 157.136719 121.777344 157.277344 122.339844 157.632812 122.757812 L 160.957031 125.847656 L 160.175781 130.195312 C 160.105469 130.6875 160.320312 131.25 160.742188 131.597656 C 161.167969 131.949219 161.734375 131.949219 162.230469 131.738281 L 166.402344 129.636719 L 170.574219 131.738281 C 170.789062 131.808594 171 131.878906 171.210938 131.878906 C 171.496094 131.878906 171.777344 131.808594 172.0625 131.597656 C 172.484375 131.25 172.695312 130.757812 172.625 130.195312 L 171.847656 125.847656 L 175.171875 122.757812 C 175.597656 122.410156 175.738281 121.847656 175.527344 121.285156 C 175.386719 120.796875 174.890625 120.375 174.394531 120.304688 L 169.726562 119.671875 Z M 167.675781 115.675781"/><g clip-path="url(#c)"><path fill="#FFF" d="M 145.113281 137.070312 C 145.535156 137.351562 146.101562 137.421875 146.597656 137.210938 L 149.425781 135.738281 L 152.253906 137.210938 C 152.46875 137.351562 152.679688 137.351562 152.890625 137.351562 C 153.175781 137.351562 153.457031 137.28125 153.742188 137.070312 C 154.164062 136.789062 154.378906 136.230469 154.308594 135.667969 L 153.742188 132.582031 L 156.003906 130.40625 C 156.429688 130.054688 156.570312 129.496094 156.359375 128.933594 C 156.144531 128.371094 155.722656 128.019531 155.226562 127.949219 L 152.042969 127.53125 L 150.628906 124.722656 C 150.417969 124.234375 149.921875 123.953125 149.355469 123.953125 C 148.789062 123.953125 148.363281 124.234375 148.082031 124.722656 L 146.667969 127.53125 L 143.484375 127.949219 C 142.917969 128.019531 142.496094 128.371094 142.351562 128.933594 C 142.210938 129.496094 142.351562 129.984375 142.707031 130.40625 L 144.96875 132.582031 L 144.402344 135.667969 C 144.476562 136.230469 144.6875 136.789062 145.113281 137.070312 Z M 145.113281 137.070312"/></g><path fill="#FFF" d="M 217.964844 121.214844 C 217.824219 120.726562 217.328125 120.304688 216.835938 120.234375 L 212.164062 119.601562 L 210.113281 115.605469 C 209.902344 115.113281 209.40625 114.832031 208.839844 114.832031 C 208.277344 114.832031 207.851562 115.113281 207.566406 115.605469 L 205.515625 119.601562 L 200.847656 120.234375 C 200.28125 120.304688 199.859375 120.65625 199.71875 121.214844 C 199.574219 121.707031 199.71875 122.269531 200.070312 122.691406 L 203.394531 125.777344 L 202.617188 130.125 C 202.546875 130.617188 202.757812 131.179688 203.183594 131.527344 C 203.605469 131.878906 204.171875 131.878906 204.667969 131.667969 L 208.839844 129.566406 L 213.015625 131.667969 C 213.226562 131.738281 213.4375 131.808594 213.652344 131.808594 C 213.933594 131.808594 214.21875 131.738281 214.5 131.527344 C 214.925781 131.179688 215.136719 130.6875 215.066406 130.125 L 214.289062 125.777344 L 217.613281 122.691406 C 217.964844 122.339844 218.109375 121.777344 217.964844 121.214844 Z M 217.964844 121.214844"/><g clip-path="url(#d)"><path fill="#FFF" d="M 232.820312 129.003906 C 232.679688 128.511719 232.183594 128.089844 231.6875 128.019531 L 228.503906 127.601562 L 227.089844 124.792969 C 226.878906 124.304688 226.382812 124.023438 225.816406 124.023438 C 225.25 124.023438 224.828125 124.304688 224.542969 124.792969 L 223.128906 127.601562 L 219.945312 128.019531 C 219.378906 128.089844 218.957031 128.441406 218.816406 129.003906 C 218.671875 129.566406 218.816406 130.054688 219.167969 130.476562 L 221.433594 132.652344 L 220.867188 135.738281 C 220.796875 136.230469 221.007812 136.789062 221.433594 137.140625 C 221.855469 137.421875 222.421875 137.492188 222.917969 137.28125 L 225.746094 135.808594 L 228.574219 137.28125 C 228.789062 137.421875 229 137.421875 229.210938 137.421875 C 229.496094 137.421875 229.777344 137.351562 230.0625 137.140625 C 230.484375 136.859375 230.699219 136.300781 230.628906 135.738281 L 230.0625 132.652344 L 232.324219 130.476562 C 232.820312 130.054688 232.960938 129.496094 232.820312 129.003906 Z M 232.820312 129.003906"/></g><g clip-path="url(#e)"><path fill="#FFF" d="M 182.671875 166.816406 L 182.671875 170.324219 C 182.671875 171.09375 183.308594 171.726562 184.085938 171.726562 C 184.863281 171.726562 204.527344 171.726562 205.304688 171.726562 C 206.082031 171.726562 206.71875 171.09375 206.71875 170.324219 L 206.71875 166.816406 C 206.71875 165.625 205.941406 164.570312 204.808594 164.148438 C 205.304688 162.117188 206.082031 157.976562 206.011719 153.417969 C 206.011719 153.277344 205.871094 147.242188 205.871094 147.242188 C 205.800781 144.648438 203.605469 142.542969 200.917969 142.542969 C 200.917969 142.542969 200.847656 142.542969 200.847656 142.542969 C 200.707031 142.542969 200.636719 142.542969 200.496094 142.542969 C 199.574219 141.351562 198.160156 140.578125 196.535156 140.578125 C 196.535156 140.578125 196.320312 140.578125 196.25 140.578125 C 195.402344 139.457031 194.058594 138.683594 192.503906 138.613281 L 192.503906 134.546875 C 192.503906 134.546875 192.503906 134.546875 192.503906 134.476562 C 192.429688 131.667969 190.449219 129.636719 187.90625 129.636719 C 187.90625 129.636719 187.832031 129.636719 187.832031 129.636719 C 186.632812 129.636719 185.5 130.125 184.722656 130.96875 C 183.871094 131.878906 183.378906 133.140625 183.378906 134.546875 L 183.378906 145.417969 C 182.671875 145.136719 181.964844 145 181.253906 145 C 179.273438 145 177.292969 146.121094 176.585938 148.015625 C 175.878906 149.980469 176.515625 152.363281 178.640625 155.3125 L 184.226562 164.359375 C 183.308594 164.78125 182.671875 165.695312 182.671875 166.816406 Z M 181.042969 153.699219 C 180.125 152.222656 177.648438 149.207031 180.125 148.015625 C 181.46875 147.382812 182.8125 148.085938 183.800781 148.996094 C 184.226562 149.347656 184.582031 149.769531 184.933594 150.191406 C 185.359375 150.679688 186.207031 150.398438 186.207031 149.769531 L 186.207031 134.546875 C 186.207031 133.421875 186.773438 132.441406 187.90625 132.441406 C 189.035156 132.441406 189.671875 133.492188 189.671875 134.546875 L 189.671875 143.175781 C 189.671875 143.175781 189.671875 143.386719 189.671875 143.386719 C 189.671875 143.316406 189.671875 143.316406 189.742188 143.246094 C 190.097656 142.332031 191.230469 141.5625 192.21875 141.5625 C 193.351562 141.5625 194.269531 142.402344 194.339844 143.523438 L 194.339844 145 C 194.339844 145 194.339844 145.070312 194.339844 145.070312 C 194.339844 145.070312 194.339844 145.070312 194.410156 145 C 194.625 144.15625 195.472656 143.523438 196.394531 143.523438 C 197.523438 143.523438 198.445312 144.367188 198.515625 145.488281 L 198.65625 147.101562 C 198.65625 147.101562 198.65625 147.171875 198.726562 147.171875 C 198.726562 147.171875 198.726562 147.171875 198.726562 147.101562 C 198.867188 146.191406 199.71875 145.488281 200.777344 145.488281 C 201.910156 145.488281 202.828125 146.332031 202.898438 147.453125 L 203.183594 154.46875 L 203.183594 153.488281 C 203.253906 158.1875 202.335938 162.394531 201.980469 164.011719 L 187.339844 164.011719 C 187.339844 164.011719 181.042969 153.765625 181.042969 153.699219 Z M 181.042969 153.699219"/></g><g fill="#EF761E"><use x="143.983" y="207.687" xmlns:xlink="http://www.w3.org/1999/xlink" xlink:href="#f" xlink:type="simple" xlink:actuate="onLoad" xlink:show="embed"/></g><g fill="#EF761E"><use x="165.92" y="207.687" xmlns:xlink="http://www.w3.org/1999/xlink" xlink:href="#g" xlink:type="simple" xlink:actuate="onLoad" xlink:show="embed"/></g><g fill="#EF761E"><use x="186.254" y="207.687" xmlns:xlink="http://www.w3.org/1999/xlink" xlink:href="#h" xlink:type="simple" xlink:actuate="onLoad" xlink:show="embed"/></g><g fill="#EF761E"><use x="206.574" y="207.687" xmlns:xlink="http://www.w3.org/1999/xlink" xlink:href="#i" xlink:type="simple" xlink:actuate="onLoad" xlink:show="embed"/></g><g fill="#EF761E"><use x="226.909" y="207.687" xmlns:xlink="http://www.w3.org/1999/xlink" xlink:href="#j" xlink:type="simple" xlink:actuate="onLoad" xlink:show="embed"/></g><g fill="#FFF"><use x="163.649" y="226.777" xmlns:xlink="http://www.w3.org/1999/xlink" xlink:href="#k" xlink:type="simple" xlink:actuate="onLoad" xlink:show="embed"/></g><g fill="#FFF"><use x="172.349" y="226.777" xmlns:xlink="http://www.w3.org/1999/xlink" xlink:href="#l" xlink:type="simple" xlink:actuate="onLoad" xlink:show="embed"/></g><g fill="#FFF"><use x="182.069" y="226.777" xmlns:xlink="http://www.w3.org/1999/xlink" xlink:href="#m" xlink:type="simple" xlink:actuate="onLoad" xlink:show="embed"/></g><g fill="#FFF"><use x="193.589" y="226.777" xmlns:xlink="http://www.w3.org/1999/xlink" xlink:href="#n" xlink:type="simple" xlink:actuate="onLoad" xlink:show="embed"/></g><g fill="#FFF"><use x="203.549" y="226.777" xmlns:xlink="http://www.w3.org/1999/xlink" xlink:href="#o" xlink:type="simple" xlink:actuate="onLoad" xlink:show="embed"/></g></svg>